<?xml version="1.0" encoding="UTF-8" standalone="no"?>
<svg
   version="1.1"
   id="svg1"
   sodipodi:docname="level0.svg"
   inkscape:version="1.4.2 (f4327f4, 2025-05-13)"
   xmlns:inkscape="http://www.inkscape.org/namespaces/inkscape"
   xmlns:sodipodi="http://sodipodi.sourceforge.net/DTD/sodipodi-0.dtd"
   xmlns="http://www.w3.org/2000/svg"
   xmlns:svg="http://www.w3.org/2000/svg">
  <defs
     id="defs1" />
  <sodipodi:namedview
     id="namedview1"
     pagecolor="#ffffff"
     bordercolor="#000000"
     borderopacity="0.25"
     inkscape:showpageshadow="2"
     inkscape:pageopacity="0.0"
     inkscape:pagecheckerboard="0"
     inkscape:deskcolor="#d1d1d1"
     inkscape:zoom="7.78"
     inkscape:cx="149.93573"
     inkscape:cy="75"
     inkscape:window-width="5104"
     inkscape:window-height="1353"
     inkscape:window-x="234"
     inkscape:window-y="142"
     inkscape:window-maximized="0"
     inkscape:current-layer="layer1" />
  <g
     inkscape:label="Calque 1"
     inkscape:groupmode="layer"
     id="layer1">
    <path
       style="fill:none;stroke:#000000;stroke-width:1;stroke-dasharray:none;stroke-opacity:1"
       d="m 64,17 h 241 l 39,23 28,49 7,71 -7,51 -33,16 -30,-7 -31,-26 -13,-40 -7,-37 -13,2 -15,29 -9,43 -29,32 -40,2 -26,-58 33,-43 L 132,106 70,166 33,222 0,210 15,144 40,59 26,28 Z"
       id="road0" />
    <path
       style="fill:none;stroke:#000000;stroke-width:1;stroke-dasharray:none;stroke-opacity:1"
       d="m 137,48 151,1 40,25 19,42 8,59 -18,17 -27,-6 -12,-27 -13,-55 -40,-12 -28,23 -11,41 -17,35 -33,-2 21,-37 7,-49 -33,-16 -31,-9 -39,48 -30,36 -17,5 5,-34 L 71,85 62,58 77,37 Z"
       id="road1" />
  </g>
</svg>
