<?xml version="1.0" encoding="UTF-8" standalone="no"?>
<svg
   version="1.1"
   id="svg1"
   sodipodi:docname="level2.svg"
   inkscape:version="1.4.2 (f4327f4, 2025-05-13)"
   xmlns:inkscape="http://www.inkscape.org/namespaces/inkscape"
   xmlns:sodipodi="http://sodipodi.sourceforge.net/DTD/sodipodi-0.dtd"
   xmlns="http://www.w3.org/2000/svg"
   xmlns:svg="http://www.w3.org/2000/svg">
  <defs
     id="defs1">
    <inkscape:path-effect
       effect="spiro"
       id="path-effect7"
       is_visible="true"
       lpeversion="1" />
    <inkscape:path-effect
       effect="spiro"
       id="path-effect6"
       is_visible="true"
       lpeversion="1" />
    <inkscape:path-effect
       effect="spiro"
       id="path-effect5"
       is_visible="true"
       lpeversion="1" />
    <inkscape:path-effect
       effect="spiro"
       id="path-effect4"
       is_visible="true"
       lpeversion="1" />
    <inkscape:path-effect
       effect="spiro"
       id="path-effect3"
       is_visible="true"
       lpeversion="1" />
    <inkscape:path-effect
       effect="spiro"
       id="path-effect2"
       is_visible="true"
       lpeversion="1" />
  </defs>
  <sodipodi:namedview
     id="namedview1"
     pagecolor="#ffffff"
     bordercolor="#000000"
     borderopacity="0.25"
     inkscape:showpageshadow="2"
     inkscape:pageopacity="0.0"
     inkscape:pagecheckerboard="0"
     inkscape:deskcolor="#d1d1d1"
     inkscape:zoom="2.7506454"
     inkscape:cx="131.96903"
     inkscape:cy="79.799454"
     inkscape:window-width="1866"
     inkscape:window-height="1035"
     inkscape:window-x="2282"
     inkscape:window-y="150"
     inkscape:window-maximized="0"
     inkscape:current-layer="svg1" />
  <g
     inkscape:label="Calque 1"
     inkscape:groupmode="layer"
     id="layer1">
    <path
       style="fill:none;stroke:#000000"
       d="M 18.904654,69.438249 C 19.616854,57.485423 24.797482,46.018999 32.481991,36.836102 40.1665,27.653205 50.254567,20.665412 61.12433,15.642911 82.863857,5.597908 107.23133,3.3154576 130.94877,0 c 34.86978,-4.874442 70.60792,-12.243655 104.85891,-4.0869768 17.1255,4.07833925 33.56734,12.2109503 45.73067,24.9376458 12.16333,12.726695 19.69419,30.299263 18.46165,47.860478 -1.03783,14.787103 -8.18137,28.802724 -18.50514,39.440173 -10.32378,10.63744 -23.66592,18.04689 -37.7389,22.7038 -28.14595,9.31383 -58.51329,7.88978 -88.15611,8.38493 -28.98499,0.48416 -58.792247,2.78703 -86.231874,-6.56343 C 55.648162,128.00139 42.74367,120.3228 33.2844,109.34039 23.82513,98.357982 18.042538,83.907106 18.904654,69.438249 Z"
       id="path3"
       inkscape:path-effect="#path-effect4"
       inkscape:original-d="M 18.904654,69.438249 C -26.66041,46.170982 93.260641,25.448573 130.94877,0 168.63689,-25.448573 243.86849,45.686248 300,68.711147 356.13151,91.736046 203.73323,115.8516 155.59985,139.24005 107.46646,162.6285 64.469718,92.705516 18.904654,69.438249 Z" />
    <path
       style="fill:none;stroke:#000000"
       d="m 116.69988,75.618617 c -0.36198,-0.93949 -0.46637,-1.970594 -0.34879,-2.970517 0.11758,-0.999924 0.45334,-1.968827 0.93653,-2.852118 0.96637,-1.766582 2.49633,-3.165501 4.15007,-4.314344 1.65374,-1.148843 3.4487,-2.07682 5.16608,-3.128158 1.71737,-1.051337 3.38134,-2.248522 4.63816,-3.821762 1.21716,-1.523591 2.0088,-3.348043 2.56877,-5.215993 0.55998,-1.86795 0.90025,-3.793146 1.30337,-5.701104 0.40312,-1.907958 0.87441,-3.815349 1.67838,-5.591988 0.80397,-1.776638 1.96179,-3.429016 3.53825,-4.576876 1.24998,-0.910141 2.73512,-1.479341 4.26382,-1.711445 1.52871,-0.232104 3.09974,-0.132555 4.60574,0.217837 3.012,0.700785 5.71684,2.37771 8.10392,4.343697 2.38707,1.965986 4.50513,4.233828 6.76416,6.34571 2.25902,2.111883 4.70023,4.093892 7.52775,5.346243 3.77552,1.672235 8.01467,1.947814 12.14348,1.886116 4.12882,-0.0617 8.27414,-0.434925 12.37643,0.03634 4.10229,0.47127 8.25989,1.890893 11.12221,4.867135 1.43116,1.488121 2.49951,3.347353 2.93025,5.366557 0.43074,2.019205 0.20104,4.195687 -0.76306,6.0214 -0.73579,1.393353 -1.87766,2.554741 -3.20724,3.400333 -1.32958,0.845592 -2.84252,1.382588 -4.39263,1.665388 -3.10022,0.565601 -6.29271,0.127965 -9.38491,-0.479903 -3.09221,-0.607867 -6.17229,-1.387963 -9.32131,-1.509994 -3.14903,-0.122031 -6.44307,0.478874 -8.95836,2.377442 -2.53441,1.913001 -4.0148,4.939782 -4.80644,8.014866 -0.79164,3.075083 -0.9807,6.268204 -1.45579,9.40781 -0.47509,3.139606 -1.27665,6.32031 -3.11872,8.906737 -0.92104,1.29321 -2.09831,2.41752 -3.48884,3.18378 -1.39052,0.76625 -2.99902,1.16342 -4.58066,1.02509 -1.35172,-0.11823 -2.65704,-0.62305 -3.78588,-1.37594 -1.12884,-0.7529 -2.08518,-1.74855 -2.86425,-2.85949 -1.55812,-2.221883 -2.39816,-4.860313 -3.09423,-7.483289 -0.69607,-2.622975 -1.27771,-5.297348 -2.40163,-7.76743 -1.12393,-2.470081 -2.86841,-4.766518 -5.30446,-5.96242 -1.83361,-0.900152 -3.93252,-1.119043 -5.97413,-1.054174 -2.04162,0.06487 -4.06515,0.397873 -6.10279,0.540788 -2.03763,0.142916 -4.12997,0.08786 -6.05461,-0.596361 -0.96232,-0.342113 -1.87382,-0.841596 -2.6443,-1.512016 -0.77048,-0.670421 -1.39714,-1.514922 -1.76434,-2.467951 z"
       id="path4"
       inkscape:path-effect="#path-effect5"
       inkscape:original-d="m 116.69988,75.618617 c -7.51338,-1.696572 9.57352,-11.633634 14.54205,-17.086899 4.96853,-5.453266 6.05918,-13.936124 9.08877,-21.085961 3.02959,-7.149837 20.8436,9.694695 31.26539,14.542042 10.4218,4.847347 25.32739,12.118368 37.80931,18.177552 12.48192,6.059184 -23.63082,3.63551 -35.26445,5.453266 -11.63363,1.817755 -11.51245,20.358858 -17.45045,30.538283 -5.938,10.17943 -11.75482,-16.965711 -17.45045,-25.448569 -5.69563,-8.482857 -15.02678,-3.393143 -22.54017,-5.089714 z"
       inkscape:label="path4" />
    <path
       style="fill:none;stroke:#000000"
       d="m 247.21471,31.992492 c 7.99442,2.330833 15.69174,6.380321 21.08596,12.724286 3.46659,4.076946 5.90999,9.074493 6.66772,14.372096 0.75772,5.297602 -0.22583,10.882452 -3.03221,15.43909 -2.32603,3.776711 -5.91645,6.811158 -10.12175,8.221644 -4.20529,1.410485 -9.00418,1.123695 -12.89182,-1.011777 -1.94382,-1.067736 -3.64728,-2.57809 -4.91139,-4.400318 -1.26412,-1.822228 -2.08415,-3.955189 -2.33161,-6.159108 -0.24746,-2.203919 0.0818,-4.474451 0.97717,-6.503464 0.89532,-2.029013 2.35795,-3.80918 4.19438,-5.05257 1.77591,-1.202416 3.84786,-1.886235 5.72195,-2.929053 0.93704,-0.521409 1.83086,-1.138548 2.5651,-1.920089 0.73424,-0.781541 1.30489,-1.73673 1.52883,-2.78543 0.32173,-1.50669 -0.1105,-3.130596 -1.04096,-4.358555 -0.93045,-1.227959 -2.32579,-2.067375 -3.81997,-2.442955 -1.49418,-0.37558 -3.08072,-0.304935 -4.57456,0.07198 -1.49384,0.376917 -2.90034,1.052042 -4.2074,1.867647 -2.61413,1.631209 -4.83638,3.812665 -7.32391,5.631098 -1.24376,0.909217 -2.56086,1.731007 -3.98354,2.322277 -1.42268,0.591271 -2.95717,0.947877 -4.4973,0.907566 -2.24151,-0.05867 -4.43608,-0.978585 -6.10617,-2.474787 -1.67009,-1.496202 -2.81585,-3.548655 -3.29586,-5.738954 -0.48002,-2.190299 -0.30419,-4.508601 0.42011,-6.630677 0.72431,-2.122077 1.98752,-4.047371 3.58622,-5.619629 3.19739,-3.144518 7.65197,-4.808813 12.11958,-5.1984 4.4676,-0.389587 8.96612,0.412834 13.27143,1.668079 z"
       id="path5"
       inkscape:path-effect="#path-effect6"
       inkscape:original-d="m 247.21471,31.992492 c 6.6651,-7.998123 14.05731,8.725225 21.08596,12.724286 7.02865,3.999062 2.42367,19.631756 3.63551,29.811186 1.21184,10.179429 -16.72335,-10.058246 -25.08502,-14.905593 -8.36168,-4.847347 6.78628,-4.726164 9.81588,-7.634572 3.02959,-2.908408 -19.87413,2.423674 -29.44764,3.999061 -9.57351,1.575388 13.33021,-15.996245 19.99531,-23.994368 z" />
    <path
       style="fill:none;stroke:#000000"
       d="m 78.890576,30.538287 c 5.320566,-3.669315 11.371325,-6.361724 17.750316,-7.401326 6.378988,-1.039602 13.090738,-0.376542 18.968338,2.311612 4.4312,2.026634 8.42175,5.286534 10.63114,9.629497 1.10469,2.171482 1.74683,4.589237 1.76482,7.025496 0.018,2.43626 -0.59849,4.887299 -1.85298,6.975825 -1.34347,2.23666 -3.38779,4.012858 -5.70224,5.217382 -2.31445,1.204524 -4.89215,1.854776 -7.48946,2.102863 -5.19461,0.496175 -10.39289,-0.580232 -15.528831,-1.503429 -4.37249,-0.785964 -8.785827,-1.466268 -13.228394,-1.468211 -4.442567,-0.0019 -8.940333,0.697216 -12.971887,2.563492 -4.031553,1.866276 -7.574576,4.967413 -9.493748,8.974055 -0.959586,2.003322 -1.503827,4.21253 -1.51542,6.433783 -0.01159,2.221254 0.515711,4.451672 1.581447,6.400597 1.812548,3.314628 5.071808,5.646046 8.566368,7.081365 3.49456,1.435319 7.255779,2.070665 10.974796,2.734742 3.719018,0.664077 7.474886,1.380464 10.906727,2.959879 3.431841,1.579416 6.557716,4.129074 8.088522,7.582872 1.02592,2.314679 1.28413,4.950259 0.80108,7.435609 -0.48305,2.48534 -1.695675,4.8141 -3.399069,6.68725 -1.703393,1.87316 -3.888109,3.29255 -6.266462,4.16071 -2.378353,0.86817 -4.945717,1.19021 -7.471428,1.01398 -5.051423,-0.35244 -9.844406,-2.69103 -13.653127,-6.02791 C 66.542362,108.09154 63.661876,103.7997 61.440126,99.249434 55.792485,87.682756 54.298516,74.116817 57.423798,61.630165 60.54908,49.143512 68.294287,37.845992 78.890576,30.538287 Z"
       id="path6"
       inkscape:path-effect="#path-effect7"
       inkscape:original-d="m 78.890576,30.538287 c 5.816817,-22.9037151 24.357924,-3.271959 36.718654,-5.089714 12.36074,-1.817755 7.02865,15.632695 10.54298,23.630818 3.51433,7.998123 -19.02584,3.877877 -28.720531,5.816816 -9.694694,1.938939 -23.873185,15.269144 -35.628002,22.903716 -11.754817,7.634572 25.69094,13.572572 38.536413,20.358858 12.84547,6.786289 -25.93331,0.727102 -38.899964,1.090653 -12.966654,0.363551 11.633633,-45.807431 17.45045,-68.711147 z"
       transform="translate(-6.9074698,-1.0906531)" />
  </g>
</svg>
