<?xml version="1.0" encoding="UTF-8" standalone="no"?>
<svg
   version="1.1"
   id="svg1"
   sodipodi:docname="level3.svg"
   inkscape:version="1.4.2 (f4327f4, 2025-05-13)"
   width="1600"
   height="960"
   xmlns:inkscape="http://www.inkscape.org/namespaces/inkscape"
   xmlns:sodipodi="http://sodipodi.sourceforge.net/DTD/sodipodi-0.dtd"
   xmlns="http://www.w3.org/2000/svg"
   xmlns:svg="http://www.w3.org/2000/svg">
  <defs
     id="defs1">
    <inkscape:path-effect
       effect="spiro"
       id="path-effect12"
       is_visible="true"
       lpeversion="1" />
    <inkscape:path-effect
       effect="spiro"
       id="path-effect11"
       is_visible="true"
       lpeversion="1" />
    <inkscape:path-effect
       effect="spiro"
       id="path-effect10"
       is_visible="true"
       lpeversion="1" />
    <inkscape:path-effect
       effect="spiro"
       id="path-effect9"
       is_visible="true"
       lpeversion="1" />
    <inkscape:path-effect
       effect="spiro"
       id="path-effect8"
       is_visible="true"
       lpeversion="1" />
    <inkscape:path-effect
       effect="spiro"
       id="path-effect7"
       is_visible="true"
       lpeversion="1" />
    <inkscape:path-effect
       effect="spiro"
       id="path-effect6"
       is_visible="true"
       lpeversion="1" />
    <inkscape:path-effect
       effect="spiro"
       id="path-effect5"
       is_visible="true"
       lpeversion="1" />
    <inkscape:path-effect
       effect="spiro"
       id="path-effect4"
       is_visible="true"
       lpeversion="1" />
    <inkscape:path-effect
       effect="spiro"
       id="path-effect3"
       is_visible="true"
       lpeversion="1" />
    <inkscape:path-effect
       effect="spiro"
       id="path-effect2"
       is_visible="true"
       lpeversion="1" />
  </defs>
  <sodipodi:namedview
     id="namedview1"
     pagecolor="#ffffff"
     bordercolor="#000000"
     borderopacity="0.25"
     inkscape:showpageshadow="2"
     inkscape:pageopacity="0.0"
     inkscape:pagecheckerboard="0"
     inkscape:deskcolor="#d1d1d1"
     inkscape:zoom="0.68766135"
     inkscape:cx="548.96207"
     inkscape:cy="519.87799"
     inkscape:window-width="1734"
     inkscape:window-height="1221"
     inkscape:window-x="2"
     inkscape:window-y="70"
     inkscape:window-maximized="0"
     inkscape:current-layer="svg1"
     showgrid="true">
    <inkscape:grid
       id="grid7"
       units="px"
       originx="0"
       originy="0"
       spacingx="32"
       spacingy="32"
       empcolor="#0099e5"
       empopacity="0.30196078"
       color="#0099e5"
       opacity="0.14901961"
       empspacing="5"
       enabled="true"
       visible="true" />
  </sodipodi:namedview>
  <g
     inkscape:label="Calque 1"
     inkscape:groupmode="layer"
     id="layer1" />
  <path
     style="fill:none;stroke:#000000"
     d="m 839.57136,61.106608 c 73.12424,4.846212 146.32182,-4.776197 219.48764,-8.94743 73.1659,-4.171233 148.4347,-2.559635 216.9163,23.534522 81.9688,31.23329 150.4411,99.42735 175.9887,183.34235 14.9824,49.21208 15.3086,102.14404 6.0508,152.74638 -9.2577,50.60233 -27.831,99.1025 -50.0148,145.51564 -35.238,73.72522 -80.2356,143.45227 -138.4031,200.84274 -58.1675,57.39046 -130.0221,102.12763 -209.2868,121.98308 -54.0139,13.53025 -111.49052,15.2755 -165.2419,0.73725 -53.75137,-14.53826 -103.50921,-45.93257 -136.40374,-90.86052 -32.89452,-44.92796 -47.83303,-103.56893 -36.34893,-158.05459 5.74205,-27.24282 17.90765,-53.17551 35.61876,-74.65711 17.71112,-21.4816 40.97652,-38.43425 67.04997,-48.19733 46.72013,-17.49414 98.70938,-11.35407 147.85422,-19.93309 24.57242,-4.28951 48.98552,-12.57841 68.51212,-28.09991 9.7633,-7.76074 18.1941,-17.28424 24.1943,-28.21806 6.0002,-10.93383 9.5247,-23.29593 9.6,-35.76771 0.072,-11.85965 -2.9771,-23.67421 -8.3995,-34.22187 -5.4225,-10.54767 -13.184,-19.83577 -22.3304,-27.38556 -18.2928,-15.09958 -41.7595,-23.01772 -65.35267,-25.46462 -51.19545,-5.30959 -103.01754,14.40355 -143.00384,46.81129 -39.9863,32.40774 -69.0536,76.61698 -90.58289,123.36797 -43.05859,93.50199 -58.10709,198.64853 -106.9298,289.27417 -14.94214,27.73589 -33.05384,53.97403 -55.59597,75.9831 -22.54213,22.00907 -49.667,39.71404 -79.75014,49.07095 -31.19426,9.7025 -64.91951,10.18955 -96.88748,3.46133 -31.96798,-6.72823 -62.22441,-20.50746 -89.53445,-38.4346 C 262.15768,823.68071 219.90516,772.16538 180.38138,720.13891 141.1188,668.45627 103.64541,615.44402 65.454204,562.96472 41.486984,530.03089 17.112995,497.10712 -1.2056165,460.72728 -19.524228,424.34743 -31.655163,383.92662 -29.375885,343.25883 c 1.139639,-20.3339 5.916405,-40.54355 14.814346,-58.86274 8.8979409,-18.31919 21.975093,-34.70725 38.401015,-46.74699 16.425921,-12.03974 36.22756,-19.62665 56.560954,-20.77526 20.33339,-1.14861 41.11925,4.28101 57.81654,15.94149 15.22582,10.63288 26.61474,25.92556 35.9455,41.98236 9.33076,16.0568 16.86151,33.10192 26.07032,49.22897 9.20881,16.12704 20.34437,31.56879 35.32455,42.54504 7.49009,5.48812 15.89653,9.79546 24.86434,12.20363 8.96781,2.40818 18.5055,2.88319 27.57832,0.90711 8.61063,-1.87542 16.69402,-5.93466 23.57669,-11.43819 6.88268,-5.50353 12.57851,-12.42914 16.97634,-20.06584 8.79565,-15.2734 12.31763,-33.11352 12.91168,-50.7285 1.18809,-35.22996 -8.75838,-70.34683 -5.54355,-105.44991 2.22763,-24.32376 10.83457,-47.92317 23.99151,-68.50235 13.15694,-20.57917 30.79295,-38.165125 50.87364,-52.071009 40.16136,-27.81177 89.30124,-40.547461 138.07355,-43.320854 97.54462,-5.546788 193.22316,26.539912 290.7115,33.000821 z"
     id="path10"
     inkscape:path-effect="#path-effect11"
     inkscape:original-d="M 839.57136,61.106608 C 1007.4548,17.475478 1126.6419,75.6937 1275.9753,75.6937 c 149.3333,0 122.6554,119.34235 175.9887,183.34235 53.3333,64 -33.2973,202.26202 -43.964,298.26202 -10.6667,96 -235.6061,205.49248 -347.6899,322.82582 -112.08389,117.33333 -155.40968,-243.0323 -235.32584,-371.0323 -79.91615,-128 164.82733,-74.65415 250.16064,-112.01877 85.3334,-37.36462 -64.0826,-60.43667 -96.08257,-87.07205 -32,-26.63538 -223.1832,310.1201 -340.51653,459.45343 C 521.21246,918.78754 550.75375,856.75901 503.19969,894.50825 455.64563,932.2575 282.16066,768.55481 180.38138,720.13891 78.602109,671.723 108.12087,616.29805 65.454204,562.96472 22.787537,509.63139 111.07683,350.14866 138.21697,232.81533 165.35711,115.48199 240.47347,326.3491 288,379.68244 335.52653,433.01577 319.94744,256 335.92116,192 351.89488,128 671.68796,104.73774 839.57136,61.106608 Z" />
  <path
     style="fill:none;stroke:#000000"
     d="m 897.73201,157.13664 c 47.10721,2.67114 94.37322,0.33373 141.51219,2.3692 47.1389,2.03547 94.8644,8.6726 137.8001,28.23666 47.3114,21.5579 87.0913,58.44303 114.3592,102.71007 27.268,44.26703 42.2293,95.6714 45.5657,147.55571 5.5917,86.95704 -22.1549,175.95263 -77.5682,243.19961 -55.4134,67.24698 -138.1859,111.68772 -225.0188,118.95729 -38.21053,3.19895 -77.98117,-0.86492 -111.94282,-18.66618 -16.98082,-8.90063 -32.28965,-21.18965 -43.9056,-36.44217 -11.61595,-15.25251 -19.45447,-33.50886 -21.57955,-52.56282 -3.5708,-32.0167 9.33006,-64.52411 30.48966,-88.8159 21.1596,-24.29179 49.92209,-40.99809 80.09743,-52.27945 37.08918,-13.86616 76.55428,-20.04587 114.60398,-31.00465 38.0497,-10.95877 76.0686,-27.70519 101.8547,-57.75436 16.9923,-19.80151 27.8243,-44.75396 31.0298,-70.64917 3.2055,-25.8952 -1.1812,-52.63805 -12.1777,-76.30053 -10.2639,-22.08606 -26.1496,-41.39891 -45.1988,-56.57353 -19.0493,-15.17463 -41.2094,-26.26533 -64.4805,-33.44836 -46.5423,-14.36608 -96.72165,-13.06582 -144.66377,-4.45633 -77.25991,13.8744 -151.60269,46.95425 -210.65394,98.67023 -59.05124,51.71599 -102.17072,122.41847 -116.63961,199.56926 -8.1,43.19072 -7.32408,87.57496 -13.58889,131.06979 -3.1324,21.74742 -8.06101,43.35311 -16.5356,63.62484 -8.47459,20.27174 -20.60643,39.22469 -36.84399,54.02684 -17.31541,15.78472 -39.00686,26.5084 -61.83725,31.77666 -22.83038,5.26825 -46.76228,5.17252 -69.78656,0.8293 C 376.57464,792.09221 335.02787,766.84967 299.65616,736.11263 218.55761,665.64023 167.28084,567.56747 97.469221,485.89941 81.052354,466.69439 63.254307,447.8528 53.677935,424.47247 c -4.788186,-11.69016 -7.378307,-24.43331 -6.231819,-37.01393 1.146487,-12.58063 6.208794,-24.97726 15.129713,-33.92174 6.650109,-6.66768 15.304251,-11.27303 24.511678,-13.24917 9.207427,-1.97614 18.935953,-1.34018 27.869703,1.63806 9.57169,3.19091 18.14706,8.99108 25.36129,16.04473 7.21423,7.05365 13.1229,15.345 18.28445,24.01435 10.3231,17.33868 17.79876,36.33152 29.12454,53.03251 23.05867,34.00232 62.51979,56.62908 103.57514,58.15181 20.52767,0.76137 41.2445,-3.56372 59.681,-12.62244 18.43651,-9.05872 34.54718,-22.84726 46.20932,-39.7576 C 415.45866,414.3034 422.19527,381.70294 426.981,349.88749 431.76674,318.07205 435.15724,285.49897 448,256 c 16.47294,-37.83728 47.86922,-68.09811 84.31066,-87.46401 36.44145,-19.3659 77.71006,-28.40076 118.899,-30.94795 82.37789,-5.09438 164.11946,14.87607 246.52235,19.5486 z"
     id="path11"
     inkscape:path-effect="#path-effect12"
     inkscape:original-d="m 897.73201,157.13664 c 149.91069,-32.95445 183.31229,19.9392 279.31229,30.60586 96,10.66667 106.5916,164.93245 159.9249,250.26578 53.3334,85.33333 -195.9204,244.82357 -302.587,362.1569 C 927.71549,917.49852 910.28756,724.49401 856.95423,692.49401 803.6209,660.49401 935.54132,604.732 967.54132,551.39866 999.54132,498.06533 1312,352 1184,462.63965 c -96,81.36035 2.946,-72.28304 18.8521,-146.9497 15.9061,-74.66667 -174.4369,-62.47822 -254.34307,-94.47822 -79.90615,-32 -209.96022,202.23949 -327.29355,298.23949 -117.33333,96 -45.63514,163.38814 -66.96848,248.72147 C 532.91367,853.50603 384.98949,746.77929 299.65616,736.11263 214.32283,725.44596 161.46922,571.23274 97.469221,485.89941 c -64,-85.33333 -24.226725,-89.69595 -34.893392,-132.36261 -10.666666,-42.66667 31.04805,-11.61111 52.381381,-11.61111 21.33334,0 51.43694,61.09159 72.77028,93.09159 21.33333,32 145.46546,5.77177 209.46546,5.77177 64,0 29.47372,-120.78905 50.80705,-184.78905 21.33333,-64 299.82134,-65.90891 449.73201,-98.86336 z"
     sodipodi:nodetypes="sssssscssssssssssss" />
</svg>
