<svg
  <g
     inkscape:label="Calque 1"
     inkscape:groupmode="layer"
     id="layer1">
    <path
       style="fill:none;stroke:#000000;stroke-width:1;stroke-dasharray:none;stroke-opacity:1"
       d="m 64,17 h 241 l 39,23 28,49 7,71 -7,51 -33,16 -30,-7 -31,-26 -13,-40 -7,-37 -13,2 -15,29 -9,43 -29,32 -40,2 -26,-58 33,-43 L 132,106 70,166 33,222 0,210 15,144 40,59 26,28 Z"
       id="road0" />
    <path
       style="fill:none;stroke:#000000;stroke-width:1;stroke-dasharray:none;stroke-opacity:1"
       d="m 137,48 151,1 40,25 19,42 8,59 -18,17 -27,-6 -12,-27 -13,-55 -40,-12 -28,23 -11,41 -17,35 -33,-2 21,-37 7,-49 -33,-16 -31,-9 -39,48 -30,36 -17,5 5,-34 L 71,85 62,58 77,37 Z"
       id="road1" />
    <circle
       style="fill:none;stroke:#000000;stroke-width:1;stroke-dasharray:none;stroke-opacity:1"
       id="start"
       cx="178.5"
       cy="34.5"
       r="5.5" />
   <foo id="bar">bonjour</foo>
   <foo>bonjour</foo>
   <foo/>
  </g>
</svg>
